name C:/MyDriveSym/Projects/mobilecap/Data\Session20210903_0002\mocap\ForceDataProcessed\walkingTS2_forces.mot
datacolumns 19
datarows 19
range 0.37450000 0.38350000
endheader 
time	R_ground_force_vx	R_ground_force_vy	R_ground_force_vz	R_ground_force_px	R_ground_force_py	R_ground_force_pz	R_ground_torque_x	R_ground_torque_y	R_ground_torque_z	L_ground_force_vx	L_ground_force_vy	L_ground_force_vz	L_ground_force_px	L_ground_force_py	L_ground_force_pz	L_ground_torque_x	L_ground_torque_y	L_ground_torque_z	
          0.37450000	        -13.64795900	        483.49524800	        -42.48443600	          0.23287600	          0.00600000	         -0.12199500	          0.00000000	         -2.19756900	          0.00000000	          0.00000000	          0.00000000	          0.00000000	          0.71542000	          0.00000000	         -0.32492300	          0.00000000	          0.00000000	          0.00000000	
          0.37500000	        -13.52838900	        483.79722700	        -42.52777600	          0.23300900	          0.00600000	         -0.12197900	          0.00000000	         -2.19899200	          0.00000000	          0.00000000	          0.00000000	          0.00000000	          0.71542000	          0.00000000	         -0.32492300	          0.00000000	          0.00000000	          0.00000000	
          0.37550000	        -13.40872900	        484.10001100	        -42.57130800	          0.23314200	          0.00600000	         -0.12196400	          0.00000000	         -2.20037500	          0.00000000	          0.00000000	          0.00000000	          0.00000000	          0.71542000	          0.00000000	         -0.32492300	          0.00000000	          0.00000000	          0.00000000	
          0.37600000	        -13.28897600	        484.40357600	        -42.61502700	          0.23327500	          0.00600000	         -0.12195000	          0.00000000	         -2.20171800	          0.00000000	          0.00000000	          0.00000000	          0.00000000	          0.71542000	          0.00000000	         -0.32492300	          0.00000000	          0.00000000	          0.00000000	
          0.37650000	        -13.16912400	        484.70789600	        -42.65893000	          0.23340700	          0.00600000	         -0.12193500	          0.00000000	         -2.20302100	          0.00000000	          0.00000000	          0.00000000	          0.00000000	          0.71542000	          0.00000000	         -0.32492300	          0.00000000	          0.00000000	          0.00000000	
          0.37700000	        -13.04917000	        485.01294900	        -42.70301500	          0.23353900	          0.00600000	         -0.12192100	          0.00000000	         -2.20428400	          0.00000000	          0.00000000	          0.00000000	          0.00000000	          0.71542000	          0.00000000	         -0.32492300	          0.00000000	          0.00000000	          0.00000000	
          0.37750000	        -12.92911000	        485.31871100	        -42.74727800	          0.23367000	          0.00600000	         -0.12190600	          0.00000000	         -2.20550800	          0.00000000	          0.00000000	          0.00000000	          0.00000000	          0.71542000	          0.00000000	         -0.32492300	          0.00000000	          0.00000000	          0.00000000	
          0.37800000	        -12.80894100	        485.62515700	        -42.79171500	          0.23380100	          0.00600000	         -0.12189200	          0.00000000	         -2.20669100	          0.00000000	          0.00000000	          0.00000000	          0.00000000	          0.71542000	          0.00000000	         -0.32492300	          0.00000000	          0.00000000	          0.00000000	
          0.37850000	        -12.68865900	        485.93226500	        -42.83632300	          0.23393200	          0.00600000	         -0.12187800	          0.00000000	         -2.20783500	          0.00000000	          0.00000000	          0.00000000	          0.00000000	          0.71542000	          0.00000000	         -0.32492300	          0.00000000	          0.00000000	          0.00000000	
          0.37900000	        -12.56826000	        486.24001000	        -42.88109900	          0.23406300	          0.00600000	         -0.12186500	          0.00000000	         -2.20893900	          0.00000000	          0.00000000	          0.00000000	          0.00000000	          0.71542000	          0.00000000	         -0.32492300	          0.00000000	          0.00000000	          0.00000000	
          0.37950000	        -12.44774000	        486.54837000	        -42.92604000	          0.23419200	          0.00600000	         -0.12185100	          0.00000000	         -2.21000300	          0.00000000	          0.00000000	          0.00000000	          0.00000000	          0.71542000	          0.00000000	         -0.32492300	          0.00000000	          0.00000000	          0.00000000	
          0.38000000	        -12.32709500	        486.85732300	        -42.97114200	          0.23432200	          0.00600000	         -0.12183800	          0.00000000	         -2.21102800	          0.00000000	          0.00000000	          0.00000000	          0.00000000	          0.71542000	          0.00000000	         -0.32492300	          0.00000000	          0.00000000	          0.00000000	
          0.38050000	        -12.20632300	        487.16684400	        -43.01640200	          0.23445100	          0.00600000	         -0.12182400	          0.00000000	         -2.21201300	          0.00000000	          0.00000000	          0.00000000	          0.00000000	          0.71542000	          0.00000000	         -0.32492300	          0.00000000	          0.00000000	          0.00000000	
          0.38100000	        -12.08541900	        487.47691100	        -43.06181700	          0.23458000	          0.00600000	         -0.12181100	          0.00000000	         -2.21295800	          0.00000000	          0.00000000	          0.00000000	          0.00000000	          0.71542000	          0.00000000	         -0.32492300	          0.00000000	          0.00000000	          0.00000000	
          0.38150000	        -11.96437900	        487.78750200	        -43.10738200	          0.23470900	          0.00600000	         -0.12179900	          0.00000000	         -2.21386300	          0.00000000	          0.00000000	          0.00000000	          0.00000000	          0.71542000	          0.00000000	         -0.32492300	          0.00000000	          0.00000000	          0.00000000	
          0.38200000	        -11.84320100	        488.09859400	        -43.15309700	          0.23483700	          0.00600000	         -0.12178600	          0.00000000	         -2.21472900	          0.00000000	          0.00000000	          0.00000000	          0.00000000	          0.71542000	          0.00000000	         -0.32492300	          0.00000000	          0.00000000	          0.00000000	
          0.38250000	        -11.72188000	        488.41016500	        -43.19895500	          0.23496500	          0.00600000	         -0.12177300	          0.00000000	         -2.21555500	          0.00000000	          0.00000000	          0.00000000	          0.00000000	          0.71542000	          0.00000000	         -0.32492300	          0.00000000	          0.00000000	          0.00000000	
          0.38300000	        -11.60041400	        488.72219300	        -43.24495600	          0.23509200	          0.00600000	         -0.12176100	          0.00000000	         -2.21634200	          0.00000000	          0.00000000	          0.00000000	          0.00000000	          0.71542000	          0.00000000	         -0.32492300	          0.00000000	          0.00000000	          0.00000000	
          0.38350000	        -11.47879900	        489.03465700	        -43.29109500	          0.23521900	          0.00600000	         -0.12174900	          0.00000000	         -2.21708800	          0.00000000	          0.00000000	          0.00000000	          0.00000000	          0.71542000	          0.00000000	         -0.32492300	          0.00000000	          0.00000000	          0.00000000	
